<svg width="264" height="57" viewBox="0 0 264 57" fill="none" xmlns="http://www.w3.org/2000/svg">
<g clip-path="url(#clip0)">
<path d="M21.7 20.45C25.0667 20.45 27.7667 21.45 29.8 23.45C31.8667 25.45 32.9 28.4667 32.9 32.5V48H23.4V34.05C23.4 30.35 21.9167 28.5 18.95 28.5C17.3167 28.5 16 29.0333 15 30.1C14.0333 31.1667 13.55 32.7667 13.55 34.9V48H4.05V20.9H13.1V23.85C14.1667 22.75 15.4333 21.9167 16.9 21.35C18.3667 20.75 19.9667 20.45 21.7 20.45ZM74.1645 20.45C77.4978 20.45 80.1478 21.45 82.1145 23.45C84.1145 25.45 85.1145 28.4667 85.1145 32.5V48H75.6145V34.05C75.6145 32.15 75.2478 30.75 74.5145 29.85C73.8145 28.95 72.8145 28.5 71.5145 28.5C70.0811 28.5 68.9311 29 68.0645 30C67.1978 31 66.7645 32.5167 66.7645 34.55V48H57.2645V34.05C57.2645 30.35 55.8978 28.5 53.1645 28.5C51.6978 28.5 50.5311 29 49.6645 30C48.7978 31 48.3645 32.5167 48.3645 34.55V48H38.8645V20.9H47.9145V23.75C48.9145 22.65 50.0978 21.8333 51.4645 21.3C52.8645 20.7333 54.3811 20.45 56.0145 20.45C57.9145 20.45 59.6145 20.8 61.1145 21.5C62.6145 22.2 63.8311 23.2667 64.7645 24.7C65.8311 23.3333 67.1811 22.2833 68.8145 21.55C70.4478 20.8167 72.2311 20.45 74.1645 20.45ZM100.161 24.15C101.127 22.9167 102.377 22 103.911 21.4C105.477 20.7667 107.261 20.45 109.261 20.45V29C108.394 28.9 107.677 28.85 107.111 28.85C105.077 28.85 103.477 29.4 102.311 30.5C101.177 31.6 100.611 33.2833 100.611 35.55V48H91.1105V20.9H100.161V24.15Z" fill="#1D4ED8"/>
<path d="M135.829 48L128.579 37.15L121.429 48H110.129L122.879 30.3L110.679 13H121.829L128.829 23.1L135.729 13H146.429L134.229 29.9L147.229 48H135.829ZM149.655 20.9H159.155V48H149.655V20.9ZM154.405 17.9C152.672 17.9 151.272 17.4167 150.205 16.45C149.139 15.4833 148.605 14.2833 148.605 12.85C148.605 11.4167 149.139 10.2167 150.205 9.25C151.272 8.28333 152.672 7.8 154.405 7.8C156.139 7.8 157.539 8.26667 158.605 9.2C159.672 10.1 160.205 11.2667 160.205 12.7C160.205 14.2 159.672 15.45 158.605 16.45C157.539 17.4167 156.139 17.9 154.405 17.9ZM193.879 20.9L182.679 48H172.879L161.729 20.9H171.479L177.979 37.45L184.829 20.9H193.879Z" fill="black"/>
<path d="M202.059 49C201.691 49 201.4 48.9003 201.185 48.701C200.986 48.4863 200.886 48.2027 200.886 47.85V33.935C200.886 33.5823 200.986 33.3063 201.185 33.107C201.4 32.8923 201.691 32.785 202.059 32.785H206.567C209.189 32.785 211.221 33.4903 212.662 34.901C214.103 36.3117 214.824 38.305 214.824 40.881C214.824 43.457 214.103 45.458 212.662 46.884C211.221 48.2947 209.189 49 206.567 49H202.059ZM206.429 47.022C210.416 47.022 212.409 44.975 212.409 40.881C212.409 36.8023 210.416 34.763 206.429 34.763H203.255V47.022H206.429ZM225.015 49.184C223.482 49.184 222.148 48.8467 221.013 48.172C219.894 47.4973 219.027 46.539 218.414 45.297C217.801 44.055 217.494 42.5907 217.494 40.904C217.494 39.202 217.793 37.73 218.391 36.488C219.004 35.2307 219.878 34.2723 221.013 33.613C222.148 32.9383 223.482 32.601 225.015 32.601C226.564 32.601 227.905 32.9383 229.04 33.613C230.175 34.2723 231.041 35.2307 231.639 36.488C232.252 37.73 232.559 39.1943 232.559 40.881C232.559 42.5677 232.252 44.0397 231.639 45.297C231.041 46.539 230.175 47.4973 229.04 48.172C227.905 48.8467 226.564 49.184 225.015 49.184ZM225.015 47.252C226.64 47.252 227.905 46.7 228.81 45.596C229.715 44.492 230.167 42.9203 230.167 40.881C230.167 38.8417 229.715 37.2777 228.81 36.189C227.921 35.085 226.656 34.533 225.015 34.533C223.405 34.533 222.148 35.085 221.243 36.189C220.354 37.2777 219.909 38.8417 219.909 40.881C219.909 42.9203 220.354 44.492 221.243 45.596C222.148 46.7 223.405 47.252 225.015 47.252ZM242.851 49.184C241.303 49.184 239.953 48.8543 238.803 48.195C237.653 47.5203 236.772 46.562 236.158 45.32C235.545 44.0627 235.238 42.583 235.238 40.881C235.238 39.1943 235.545 37.73 236.158 36.488C236.772 35.2307 237.653 34.2723 238.803 33.613C239.953 32.9383 241.303 32.601 242.851 32.601C243.863 32.601 244.822 32.762 245.726 33.084C246.631 33.3907 247.421 33.843 248.095 34.441C248.387 34.671 248.532 34.9777 248.532 35.361C248.532 35.637 248.456 35.8747 248.302 36.074C248.149 36.258 247.965 36.35 247.75 36.35C247.49 36.35 247.237 36.2503 246.991 36.051C246.255 35.499 245.581 35.1157 244.967 34.901C244.369 34.671 243.687 34.556 242.92 34.556C241.234 34.556 239.938 35.1003 239.033 36.189C238.129 37.2777 237.676 38.8417 237.676 40.881C237.676 42.9357 238.129 44.5073 239.033 45.596C239.938 46.6847 241.234 47.229 242.92 47.229C243.656 47.229 244.323 47.114 244.921 46.884C245.535 46.654 246.225 46.2707 246.991 45.734C247.298 45.5347 247.551 45.435 247.75 45.435C247.965 45.435 248.149 45.5347 248.302 45.734C248.456 45.918 248.532 46.148 248.532 46.424C248.532 46.8073 248.387 47.114 248.095 47.344C247.421 47.942 246.631 48.402 245.726 48.724C244.822 49.0307 243.863 49.184 242.851 49.184ZM256.445 49.184C255.28 49.184 254.168 49.023 253.11 48.701C252.068 48.379 251.232 47.9343 250.603 47.367C250.312 47.1217 250.166 46.8073 250.166 46.424C250.166 46.148 250.243 45.918 250.396 45.734C250.55 45.5347 250.734 45.435 250.948 45.435C251.163 45.435 251.424 45.5347 251.73 45.734C253.095 46.746 254.651 47.252 256.399 47.252C257.626 47.252 258.569 47.022 259.228 46.562C259.888 46.102 260.217 45.4427 260.217 44.584C260.217 43.9093 259.911 43.4033 259.297 43.066C258.684 42.7287 257.703 42.4067 256.353 42.1C255.065 41.824 254.007 41.5097 253.179 41.157C252.351 40.8043 251.7 40.329 251.224 39.731C250.764 39.1177 250.534 38.3433 250.534 37.408C250.534 36.4727 250.787 35.6447 251.293 34.924C251.815 34.188 252.535 33.6207 253.455 33.222C254.375 32.808 255.426 32.601 256.606 32.601C257.695 32.601 258.699 32.7543 259.619 33.061C260.539 33.3677 261.321 33.82 261.965 34.418C262.272 34.6787 262.425 34.993 262.425 35.361C262.425 35.6217 262.341 35.8517 262.172 36.051C262.019 36.2503 261.835 36.35 261.62 36.35C261.421 36.35 261.168 36.2503 260.861 36.051C260.156 35.5143 259.489 35.131 258.86 34.901C258.247 34.6557 257.503 34.533 256.629 34.533C255.449 34.533 254.529 34.7783 253.869 35.269C253.21 35.7443 252.88 36.4113 252.88 37.27C252.88 38.006 253.172 38.5657 253.754 38.949C254.337 39.317 255.272 39.6543 256.56 39.961C257.91 40.2677 258.998 40.5897 259.826 40.927C260.67 41.249 261.337 41.7013 261.827 42.284C262.333 42.8513 262.586 43.5873 262.586 44.492C262.586 45.412 262.326 46.2323 261.804 46.953C261.298 47.6583 260.578 48.2103 259.642 48.609C258.722 48.9923 257.657 49.184 256.445 49.184Z" fill="black"/>
</g>
<defs>
<clipPath id="clip0">
<rect width="264" height="57" fill="white"/>
</clipPath>
</defs>
</svg>
